<svg width="205" height="49" viewBox="0 0 205 49" fill="none" xmlns="http://www.w3.org/2000/svg">
<path d="M90.8204 24.1302C90.8204 16.449 90.8204 8.76896 90.8204 1.08771C90.8204 0.921463 90.8254 0.753963 90.8204 0.587713C90.8141 0.361463 90.8991 0.235213 91.1454 0.241463C91.3616 0.246463 91.5141 0.323963 91.5329 0.555213C91.5479 0.741463 91.5441 0.928963 91.5441 1.11646C91.5441 16.4777 91.5454 31.839 91.5354 47.2002C91.5354 47.5027 91.7591 48.0302 91.1991 48.0377C90.5791 48.0465 90.8316 47.484 90.8316 47.1715C90.8166 39.4927 90.8204 31.8115 90.8204 24.1302Z" fill="#DCB05D"/>
<path fill-rule="evenodd" clip-rule="evenodd" d="M123.81 8.47021C123.81 7.85115 123.811 7.23218 123.812 6.61324V6.61312C123.814 4.88008 123.817 3.14736 123.8 1.41396C123.795 0.892709 123.965 0.722709 124.483 0.731459C124.646 0.734297 124.793 0.735629 124.924 0.736825C125.548 0.742484 125.836 0.745101 125.965 0.889783C126.077 1.0143 126.07 1.24406 126.058 1.67156C126.054 1.84459 126.048 2.05001 126.049 2.29396C126.06 5.2666 126.058 8.23924 126.056 11.2119V11.2132C126.055 12.4026 126.054 13.592 126.054 14.7815C126.054 15.999 126.291 16.2352 127.506 16.2377L127.507 16.2377C128.132 16.239 128.755 16.2402 129.38 16.2377C130.543 16.234 131.156 15.6227 131.194 14.4352C131.204 14.12 131.207 13.805 131.211 13.4901C131.218 12.8107 131.226 12.1313 131.298 11.449C131.559 8.96146 133.263 7.36271 135.774 7.35396C136.79 7.35021 137.794 7.35146 138.735 7.85146C140.18 8.61771 140.813 9.89271 141.023 11.4227C141.193 12.659 141.189 13.899 140.848 15.1177C140.158 17.5852 138.69 18.2502 136.78 18.4377C135.279 18.5852 133.829 18.3677 132.661 17.2577C132.551 17.1527 132.438 17.0477 132.305 17.2327C131.656 18.1327 130.639 18.2415 129.685 18.3002C128.509 18.3727 127.323 18.389 126.136 18.2527C124.516 18.0665 123.835 16.9765 123.814 15.5227C123.789 13.863 123.794 12.2027 123.8 10.5422C123.802 9.8503 123.804 9.15838 123.804 8.46646C123.808 8.47021 123.809 8.47021 123.81 8.47021ZM133.424 12.919C133.424 12.9843 133.422 13.0498 133.42 13.1154V13.1154C133.415 13.2582 133.411 13.401 133.428 13.5415C133.645 15.3415 134.04 16.174 135.784 16.454C137.14 16.6727 138.283 16.009 138.681 14.7052C139.055 13.4827 139.016 12.2415 138.643 11.0377C138.07 9.19271 135.644 8.64646 134.291 10.0265C133.498 10.8377 133.436 11.8727 133.424 12.919ZM111.254 18.314H105.323L105.26 18.314C105.135 18.3142 105.011 18.3143 104.885 18.309C103.104 18.2227 102.169 17.3815 102.098 15.609C102.044 14.275 102.055 12.9386 102.065 11.6019C102.069 11.0234 102.073 10.4449 102.073 9.86645C102.073 9.84849 102.072 9.82881 102.071 9.80859C102.068 9.73592 102.064 9.65622 102.1 9.62395C102.472 9.29118 102.896 9.33691 103.319 9.38252C103.506 9.4027 103.693 9.42286 103.875 9.4102C104.24 9.3852 104.264 9.70895 104.265 9.9952C104.267 10.4577 104.267 10.9201 104.267 11.3824C104.269 12.5846 104.27 13.7864 104.288 14.989C104.303 15.9415 104.599 16.2227 105.53 16.2252C109.38 16.234 113.23 16.2377 117.08 16.2352C118.083 16.2352 118.428 15.874 118.434 14.8015C118.446 12.679 118.453 10.5577 118.433 8.4352C118.428 7.9352 118.561 7.7277 119.095 7.74145C119.333 7.74725 119.532 7.74735 119.699 7.74744C120.146 7.74767 120.364 7.74778 120.467 7.85642C120.564 7.95927 120.559 8.15938 120.55 8.54895C120.545 8.72242 120.54 8.93346 120.543 9.1902C120.564 11.3327 120.571 13.4765 120.531 15.6177C120.501 17.2152 119.749 18.0202 118.179 18.239C117.769 18.2965 117.35 18.304 116.935 18.3052C115.558 18.3097 114.18 18.309 112.803 18.3083C112.287 18.308 111.77 18.3077 111.254 18.3077V18.314ZM112.296 23.0002C112.432 22.8705 112.41 22.576 112.409 21.9165C112.406 20.6515 112.406 20.6515 111.328 20.644L111.321 20.644C110.586 20.6385 110.277 20.6338 110.15 20.7837C110.019 20.94 110.087 21.2645 110.079 21.9315C110.072 22.5817 110.049 22.873 110.183 23.0017C110.319 23.1319 110.615 23.0952 111.249 23.0952C111.871 23.0952 112.161 23.1291 112.296 23.0002Z" fill="#DCB05D"/>
<path fill-rule="evenodd" clip-rule="evenodd" d="M152.679 11.6385C152.68 10.9486 152.68 10.2588 152.68 9.56897H152.678L152.677 7.07254C152.677 5.40796 152.677 3.74319 152.678 2.07897C152.678 1.95355 152.679 1.83958 152.679 1.73602V1.73598V1.73598C152.683 1.18023 152.685 0.924494 152.558 0.809585C152.45 0.711637 152.25 0.716011 151.878 0.724113C151.721 0.727523 151.534 0.731593 151.312 0.728974C150.472 0.718974 150.445 0.751474 150.445 1.61272C150.444 4.15147 150.444 6.68991 150.443 9.22835C150.443 11.7668 150.443 14.3052 150.442 16.844C150.442 16.9477 150.441 17.0443 150.441 17.134C150.438 17.7415 150.436 18.0409 150.585 18.1898C150.73 18.3344 151.017 18.3371 151.581 18.3425H151.581C151.701 18.3437 151.834 18.345 151.98 18.3477C152.538 18.3577 152.694 18.1565 152.69 17.6215C152.674 15.6275 152.677 13.6329 152.679 11.6386V11.6385V11.6385ZM165.673 16.9516L165.673 15.7852C165.672 15.7852 165.671 15.7852 165.669 15.7858L165.668 15.7865C165.668 15.384 165.674 14.9811 165.679 14.5783C165.692 13.6887 165.705 12.7993 165.655 11.914C165.524 9.60521 164.56 7.73771 161.881 7.29521C159.535 6.90771 157.396 7.77146 156.423 10.0177C155.784 11.4902 155.699 13.0377 155.964 14.5965C156.363 16.9365 157.719 18.0852 160.01 18.2427C160.7 18.2901 161.389 18.3014 162.078 18.3127L162.078 18.3127L162.078 18.3127L162.078 18.3127L162.078 18.3127C162.406 18.3181 162.734 18.3234 163.061 18.3327C163.091 18.3335 163.12 18.3328 163.15 18.3322C163.318 18.3285 163.484 18.3249 163.553 18.5802C163.914 19.9102 162.898 21.314 161.521 21.3477C161.1 21.3583 160.677 21.3565 160.255 21.3548H160.255H160.255H160.255H160.254C159.927 21.3534 159.6 21.3521 159.273 21.3565C159.03 21.3599 158.828 21.3566 158.659 21.3539C158.246 21.3473 158.032 21.3439 157.921 21.449C157.802 21.5618 157.802 21.7996 157.801 22.2924V22.2925C157.8 22.4534 157.8 22.6416 157.795 22.8615C157.785 23.3315 157.973 23.4815 158.424 23.4715C158.859 23.4621 159.294 23.466 159.73 23.4699H159.73H159.73H159.73H159.73C160.337 23.4753 160.943 23.4808 161.548 23.4502C164.143 23.3202 165.669 21.8502 165.673 19.2827C165.674 18.5063 165.673 17.7293 165.673 16.9521V16.952V16.9518V16.9517V16.9516ZM163.556 13.7383C163.556 13.8859 163.556 14.0337 163.558 14.1815C163.558 14.3478 163.557 14.5143 163.557 14.6808C163.557 15.0973 163.556 15.5141 163.559 15.9302C163.56 16.159 163.518 16.4127 163.238 16.3327C162.744 16.192 162.252 16.2312 161.756 16.2706C161.345 16.3033 160.932 16.3362 160.515 16.2665C158.936 16.0015 158.435 15.684 158.135 14.1165C157.916 12.979 157.989 11.8327 158.534 10.7765C159.133 9.61646 160.176 9.13021 161.443 9.36646C162.534 9.57021 163.263 10.4565 163.45 11.6952C163.553 12.3764 163.554 13.0567 163.556 13.7383ZM188.865 18.3165C189.77 18.2915 190.699 18.109 191.18 17.1477C191.369 17.0114 191.463 17.1414 191.549 17.2619C191.558 17.2741 191.567 17.2861 191.575 17.2977C191.998 17.8677 192.573 18.1552 193.267 18.239C194.118 18.3427 194.968 18.3402 195.815 18.2077C196.453 18.1077 197.02 17.8615 197.408 17.3252C197.607 17.0502 197.722 17.0802 197.903 17.334C198.362 17.9765 199.045 18.2327 199.792 18.284C200.515 18.3327 201.245 18.3615 201.972 18.2465C203.34 18.0315 203.923 17.479 204.223 16.1227C204.3 15.7727 204.308 15.4215 204.308 15.069C204.31 13.6017 204.309 12.1338 204.309 10.6662L204.309 9.19896C204.309 8.45563 204.309 8.08779 204.125 7.90394C203.945 7.72384 203.588 7.7203 202.882 7.71329L202.824 7.71271C202.314 7.70771 202.135 7.84771 202.143 8.37771C202.162 9.69065 202.16 11.0042 202.158 12.3179V12.3179V12.318V12.3181C202.157 12.9404 202.155 13.5628 202.157 14.1852C202.16 16.0802 201.859 16.3627 199.969 16.2252C199.865 16.2177 199.762 16.2052 199.66 16.1852C198.449 15.9527 198.035 15.4552 198.032 14.224C198.03 13.477 198.031 12.7292 198.032 11.9818L198.032 11.977L198.033 11.414V11.4139C198.033 10.6914 198.034 10.3342 197.855 10.1544C197.681 9.97852 197.335 9.97239 196.652 9.96026L196.579 9.95896C196.008 9.94771 195.812 10.114 195.827 10.6977C195.851 11.6743 195.848 12.6521 195.844 13.6298C195.842 14.0887 195.84 14.5477 195.842 15.0065C195.843 15.604 195.679 16.1152 195.005 16.1977C194.284 16.2865 193.548 16.314 192.84 16.0802C192.002 15.804 191.69 15.3752 191.668 14.4865C191.658 14.1032 191.659 13.7199 191.66 13.3365C191.66 13.1786 191.661 13.0207 191.66 12.8627L191.658 12.8624C191.661 12.6963 191.665 12.5302 191.669 12.3639L191.669 12.363V12.3628V12.3626V12.3624V12.3622C191.677 12.0097 191.685 11.6568 191.683 11.304C191.681 11.1224 191.683 10.9652 191.685 10.8291V10.8287V10.8283V10.828C191.689 10.389 191.692 10.1698 191.583 10.0617C191.475 9.95381 191.257 9.95638 190.821 9.96152C190.691 9.96305 190.543 9.96481 190.372 9.96395C189.554 9.96029 189.554 9.96497 189.532 10.7591L189.53 10.8177C189.516 11.3518 189.525 11.8863 189.534 12.4208V12.4208V12.4208V12.4209V12.4209C189.55 13.3824 189.566 14.3439 189.444 15.304C189.363 15.949 188.977 16.2115 188.39 16.2152C188.037 16.2179 187.684 16.2212 187.331 16.2244C185.706 16.2395 184.081 16.2546 182.458 16.2115C181.319 16.1815 180.334 15.6752 180.404 14.1177C180.462 12.8338 180.445 11.546 180.429 10.2592V10.2591V10.2591V10.259V10.2589L180.429 10.2582L180.429 10.2576L180.429 10.2569L180.429 10.2563C180.424 9.89916 180.42 9.54209 180.417 9.1852C180.415 8.95793 180.418 8.7664 180.421 8.60497V8.60485V8.60473V8.60463C180.428 8.17464 180.432 7.95831 180.325 7.84886C180.218 7.73804 179.997 7.73678 179.554 7.73424C179.389 7.73329 179.193 7.73217 178.962 7.7252C178.419 7.70895 178.29 7.92895 178.299 8.4252C178.324 9.7777 178.327 11.1315 178.3 12.484C178.295 12.7724 178.301 13.0608 178.308 13.3492C178.322 14.0145 178.336 14.6799 178.209 15.3452C178.094 15.9515 177.735 16.2115 177.185 16.2265C176.229 16.2527 175.269 16.259 174.313 16.2252C173.118 16.1827 172.438 15.4602 172.43 14.2677C172.425 13.3004 172.425 12.333 172.425 11.3657C172.424 10.6055 172.424 9.84536 172.422 9.0852C172.421 8.92436 172.422 8.78294 172.424 8.65858V8.65847V8.65837V8.65828C172.428 8.18835 172.43 7.96206 172.318 7.85145C172.214 7.74872 172.012 7.74579 171.621 7.74014C171.477 7.73807 171.308 7.73562 171.109 7.7277C170.464 7.7027 170.302 7.92395 170.305 8.5452C170.325 11.3738 170.321 14.2032 170.316 17.0322V17.0326V17.033V17.0334V17.0338V17.034V17.0343V17.0345V17.0348C170.315 17.7641 170.314 18.4934 170.313 19.2227C170.312 20.6415 169.618 21.349 168.224 21.364C168.099 21.3652 167.974 21.3665 167.849 21.3665C167.47 21.3677 167.365 21.6265 167.442 21.9127C167.488 22.0874 167.454 22.3085 167.42 22.5268C167.355 22.9458 167.292 23.3547 167.802 23.4065C169.708 23.6002 171.775 23.0152 172.31 20.5552C172.437 19.9714 172.429 19.3875 172.421 18.8037C172.417 18.5388 172.414 18.2739 172.423 18.009C172.434 17.664 172.492 17.5177 172.838 17.7777C173.154 18.0152 173.509 18.1627 173.917 18.2215C174.675 18.3298 175.434 18.3294 176.195 18.3289C176.285 18.3289 176.376 18.3288 176.467 18.329C177.699 18.3327 178.928 18.3252 179.824 17.264C179.973 17.0877 180.13 17.064 180.274 17.2852C180.798 18.0927 181.633 18.3027 182.495 18.319C184.618 18.359 186.744 18.3765 188.865 18.3165ZM191.18 17.1477C191.095 16.7677 191.073 16.4065 191.293 16.044C191.415 15.8427 191.435 15.6127 191.274 15.3502C190.999 14.9038 191.032 14.4098 191.065 13.9173C191.079 13.7092 191.093 13.5015 191.084 13.2977C191.076 13.1196 191.223 12.9271 191.448 12.8724C191.224 12.9275 191.079 13.1202 191.087 13.2977C191.096 13.5015 191.082 13.7092 191.068 13.9173C191.035 14.4098 191.002 14.9038 191.277 15.3502C191.439 15.614 191.418 15.844 191.295 16.044C191.073 16.4077 191.097 16.7677 191.18 17.1477ZM180.32 23.0915C179.876 23.0948 179.652 23.0965 179.541 22.9853C179.427 22.8718 179.43 22.6405 179.436 22.1731C179.437 22.0955 179.438 22.0114 179.439 21.9202C179.44 21.7309 179.436 21.5686 179.431 21.4297V21.4296C179.407 20.634 179.407 20.6023 180.753 20.614L180.76 20.614C181.783 20.6227 181.788 20.6228 181.788 21.6665V21.9165C181.788 21.9742 181.788 22.0292 181.789 22.0815C181.792 22.6363 181.794 22.8887 181.669 23.0021C181.565 23.0967 181.373 23.0947 181.021 23.091C180.905 23.0897 180.77 23.0883 180.615 23.0902C180.507 23.0901 180.409 23.0909 180.32 23.0915ZM178.438 22.9977C178.576 22.8668 178.548 22.5604 178.553 21.8552C178.534 21.2077 178.588 20.9252 178.473 20.8043C178.361 20.6873 178.091 20.7215 177.444 20.7227C176.308 20.724 176.308 20.729 176.308 22.0765C176.308 23.089 176.308 23.0927 177.32 23.0877C177.993 23.0839 178.299 23.1291 178.438 22.9977Z" fill="#DCB05D"/>
<path fill-rule="evenodd" clip-rule="evenodd" d="M102.308 46.1639C104.068 47.4939 106.067 48.0714 108.244 48.1077C108.833 48.1202 109.416 48.0877 109.986 47.9627C111.776 47.5702 113.356 46.8327 114.134 45.0414C115.036 42.9702 114.874 39.7239 111.857 38.5227C111.217 38.2677 110.561 38.0802 109.883 37.9552C109.574 37.8981 109.263 37.8528 108.952 37.8075C108.133 37.6883 107.313 37.5691 106.541 37.2339C105.564 36.8114 104.943 36.1289 104.928 35.0077C104.908 33.4764 105.914 32.3702 107.454 32.2089C109.156 32.0302 110.716 32.4264 112.168 33.3064L112.202 33.327C112.426 33.4624 112.7 33.629 112.862 33.2914C112.947 33.1127 113.074 32.9516 113.2 32.7905C113.466 32.4526 113.731 32.1146 113.619 31.6127C113.608 31.5581 113.53 31.5127 113.464 31.4741C113.453 31.4676 113.442 31.4613 113.432 31.4552C110.866 29.9202 108.166 29.3864 105.331 30.5839C103.529 31.3452 102.672 32.8489 102.562 34.7702C102.453 36.6739 103.114 38.1989 104.854 39.1389C105.706 39.5989 106.637 39.8127 107.584 39.9752C107.854 40.0214 108.125 40.0577 108.397 40.094L108.397 40.094C109.234 40.2058 110.071 40.3176 110.843 40.7214C111.708 41.1739 112.206 41.8389 112.214 42.8502C112.227 44.2639 111.476 45.3127 110.066 45.6927C108.082 46.2277 106.241 45.8202 104.503 44.7814C103.225 44.0182 103.214 44.0308 102.26 45.1552L102.211 45.2139C101.866 45.6202 101.899 45.8552 102.308 46.1639ZM159.295 35.7115V42.004C159.295 42.4763 159.293 42.9487 159.292 43.421C159.289 44.6562 159.286 45.8913 159.305 47.1265C159.313 47.6652 159.15 47.864 158.593 47.8502C158.354 47.8445 158.152 47.844 157.98 47.8436C157.492 47.8424 157.254 47.8419 157.14 47.7227C157.033 47.6091 157.038 47.3878 157.049 46.9557L157.049 46.9554V46.9554V46.9553V46.9553V46.9553V46.9552V46.9551V46.955V46.9549V46.9548C157.053 46.7862 157.058 46.5854 157.057 46.3465C157.049 42.6508 157.051 38.9559 157.054 35.2606C157.055 33.8751 157.056 32.4896 157.056 31.104C157.056 30.2919 157.063 30.2911 157.725 30.2256C157.779 30.2203 157.837 30.2145 157.901 30.2077C158.943 30.0965 159.473 30.4452 159.896 31.4552C160.977 34.0405 162.124 36.5978 163.271 39.1554C163.698 40.1061 164.124 41.0568 164.547 42.009C164.563 42.044 164.584 42.0769 164.613 42.1226L164.614 42.1227C164.629 42.1471 164.647 42.1751 164.668 42.209C164.959 41.8882 165.101 41.5076 165.24 41.1349C165.293 40.9935 165.345 40.8532 165.405 40.7177C166.7 37.7805 167.975 34.8346 169.249 31.8884L169.25 31.8866L169.756 30.7177C169.907 30.3677 170.138 30.2152 170.528 30.2252C170.815 30.232 171.052 30.2311 171.249 30.2303C171.737 30.2285 171.976 30.2276 172.089 30.3462C172.197 30.4594 172.191 30.6818 172.179 31.1164C172.174 31.3038 172.168 31.5306 172.17 31.8052C172.176 32.868 172.169 33.931 172.162 34.9938V34.994V34.9942V34.9944V34.9946V34.9947V34.9949V34.9951V34.9953V34.9955V34.9957V34.9959C172.15 36.9262 172.138 38.8561 172.203 40.784C172.248 42.1109 172.255 43.4368 172.262 44.7626L172.262 44.7651C172.266 45.5168 172.27 46.2684 172.281 47.0202C172.292 47.7965 172.24 47.8427 171.473 47.8315C171.258 47.8285 171.075 47.8302 170.919 47.8317C170.48 47.8357 170.26 47.8378 170.151 47.7285C170.04 47.6178 170.044 47.3929 170.052 46.9403C170.055 46.7886 170.058 46.6112 170.057 46.404C170.055 45.7826 170.054 45.1612 170.052 44.5396C170.046 41.5174 170.039 38.4906 169.97 35.4415L169.62 36.21C169.228 37.0735 168.835 37.9367 168.446 38.8015C168.245 39.2476 168.043 39.6935 167.842 40.1395L167.839 40.1447L167.837 40.1499C167.133 41.7072 166.428 43.2648 165.745 44.8315C165.531 45.3208 165.173 45.3224 164.799 45.3241C164.711 45.3245 164.622 45.3248 164.535 45.3315C164.062 45.3677 163.732 45.2165 163.533 44.7715C162.536 42.5315 161.536 40.2927 160.53 38.0565C160.293 37.532 160.05 37.0114 159.806 36.4906L159.805 36.49L159.805 36.4895L159.805 36.4892L159.805 36.4888L159.805 36.4885L159.805 36.4883L159.804 36.4881L159.804 36.4879L159.804 36.4877L159.804 36.4875L159.804 36.4873C159.679 36.221 159.555 35.9547 159.431 35.6877C159.386 35.6977 159.341 35.7052 159.295 35.7115ZM192.177 39.8974V39.8973C192.178 37.5978 192.179 35.2981 192.174 32.9978C192.173 32.2903 192.149 31.584 192.121 30.8765C192.102 30.4303 192.276 30.2378 192.741 30.2403C193.57 30.2457 194.401 30.2423 195.231 30.239C196.504 30.2339 197.777 30.2288 199.049 30.2553C201.382 30.304 203.189 31.554 203.922 33.5265C204.691 35.599 204.176 38.0203 202.647 39.3978C201.483 40.4465 200.054 40.7553 198.542 40.7765C197.397 40.7928 196.251 40.7953 195.107 40.7653C194.642 40.7528 194.493 40.9065 194.498 41.3715C194.508 42.2606 194.507 43.15 194.507 44.0393C194.506 45.0656 194.505 46.0919 194.521 47.1178C194.528 47.659 194.369 47.8915 193.812 47.8278C193.613 47.8045 193.411 47.8103 193.209 47.8162H193.209C193.119 47.8189 193.028 47.8215 192.938 47.8215C192.126 47.8228 192.123 47.8228 192.123 46.9778C192.122 45.9787 192.122 44.9796 192.123 43.9802L192.123 42.4803C192.141 42.4828 192.158 42.4828 192.177 42.4828C192.177 41.6211 192.177 40.7594 192.177 39.8977V39.8976V39.8975V39.8974V39.8974ZM194.511 35.4665H194.507V38.0903L194.507 38.1377C194.505 38.3764 194.503 38.6118 194.867 38.5978C195.415 38.5777 195.965 38.5901 196.514 38.6024C197.506 38.6248 198.497 38.6471 199.479 38.479C201.142 38.194 202.044 36.9478 201.922 35.1828C201.816 33.6528 200.684 32.529 199.101 32.4678C198.258 32.4355 197.414 32.4363 196.569 32.437C196.039 32.4375 195.508 32.438 194.978 32.4303C194.627 32.4253 194.501 32.5565 194.507 32.9053C194.516 33.5059 194.514 34.1066 194.512 34.7073C194.511 34.9604 194.511 35.2134 194.511 35.4665ZM186.352 39.0865C186.766 39.8284 187.015 40.6383 187.262 41.4412C187.307 41.588 187.352 41.7344 187.398 41.8802C187.671 42.7467 187.99 43.5964 188.308 44.4459L188.308 44.446C188.628 45.2987 188.947 46.1511 189.221 47.0202L189.23 47.0503C189.482 47.8492 189.485 47.8575 188.606 47.8415C188.314 47.836 188.082 47.8411 187.895 47.8452C187.526 47.8533 187.331 47.8576 187.2 47.7689C187.053 47.6705 186.984 47.4576 186.838 47.0086C186.787 46.8512 186.726 46.6647 186.649 46.444C186.552 46.1642 186.452 45.8854 186.351 45.6066C186.177 45.1231 186.003 44.6394 185.844 44.1502C185.744 43.8415 185.586 43.7215 185.262 43.7227C183.201 43.7302 181.139 43.7277 179.078 43.7152C178.749 43.7127 178.604 43.8465 178.504 44.1515C178.339 44.6515 178.165 45.1484 177.99 45.6453L177.99 45.6453L177.99 45.6454L177.99 45.6455L177.99 45.6456L177.99 45.6457L177.99 45.6458L177.99 45.6459L177.989 45.646L177.989 45.6462L177.989 45.6469C177.799 46.1879 177.609 46.7289 177.431 47.274C177.292 47.6977 177.067 47.884 176.612 47.8427C176.219 47.8077 175.821 47.8152 175.426 47.8415C174.954 47.8715 174.904 47.689 175.049 47.2877C175.478 46.1011 175.899 44.9124 176.319 43.7234L176.321 43.718L176.323 43.7133C176.615 42.8892 176.906 42.065 177.201 41.2415C177.574 40.1985 177.948 39.1561 178.322 38.1136C179.183 35.7167 180.044 33.3196 180.886 30.9152C181.069 30.389 181.314 30.199 181.867 30.219C182.147 30.2296 182.369 30.2281 182.548 30.2269C182.886 30.2247 183.07 30.2234 183.2 30.3067C183.356 30.4065 183.434 30.6277 183.606 31.1139L183.606 31.1139L183.606 31.1145C183.653 31.246 183.706 31.397 183.769 31.5702C184.317 33.0606 184.839 34.5593 185.362 36.0585L185.362 36.0586L185.362 36.0587L185.362 36.0588L185.362 36.0589L185.362 36.059C185.571 36.6583 185.78 37.2576 185.991 37.8565C186.008 37.9042 186.025 37.9517 186.043 37.9993C186.126 38.2242 186.21 38.449 186.201 38.6977L186.198 38.6979C186.25 38.8266 186.301 38.9565 186.352 39.0865ZM185.189 38.7708L185.731 38.7317C185.22 38.7689 184.71 38.8058 184.199 38.8422C184.527 38.8183 184.855 38.7947 185.183 38.7712L185.185 38.771L185.187 38.7709L185.189 38.7708ZM183.533 37.4669C183.674 37.9445 183.815 38.4221 184.088 38.8501L184.086 38.8502C184.113 38.9327 184.139 39.0152 184.166 39.0977H184.168C184.254 39.5906 184.424 40.0574 184.594 40.5239L184.594 40.5245C184.665 40.7192 184.736 40.9138 184.801 41.1102C184.906 41.429 184.928 41.599 184.493 41.594C183.133 41.5785 181.772 41.5855 180.412 41.5925L180.411 41.5925L179.879 41.5952C179.587 41.5965 179.392 41.584 179.532 41.189C180.191 39.3248 180.84 37.4586 181.516 35.5157L181.518 35.5098L181.562 35.3856L181.563 35.3833L181.596 35.2871L181.599 35.2791C181.793 34.722 181.989 34.1583 182.188 33.5865C182.318 33.9568 182.441 34.3106 182.559 34.6527L182.559 34.6537L182.56 34.6542C182.817 35.3984 183.056 36.0876 183.309 36.7715C183.394 36.9994 183.463 37.2331 183.532 37.4668L183.533 37.4669ZM128.479 30.2308C127.828 30.2562 127.178 30.2817 126.53 30.274C126.411 30.2712 126.293 30.2708 126.174 30.2704C125.918 30.2696 125.661 30.2688 125.406 30.244C124.872 30.1915 124.685 30.374 124.687 30.939C124.699 34.5345 124.697 38.1306 124.694 41.7265V41.7266V41.7267V41.7269V41.727V41.7271C124.693 43.2253 124.692 44.7235 124.692 46.2215C124.693 47.8268 124.698 47.8268 126.279 47.8397L126.35 47.8402C126.925 47.8452 127.058 47.6065 127.052 47.0977C127.038 45.9239 127.037 44.7495 127.036 43.5753V43.5753V43.5752V43.5752V43.5751V43.5751C127.036 43.1276 127.036 42.6801 127.035 42.2327C126.954 42.2105 126.858 42.1944 126.761 42.1783C126.549 42.1427 126.337 42.1071 126.3 42.0065C126.279 41.9509 126.264 41.8959 126.25 41.8439L126.25 41.8438L126.25 41.8438C126.198 41.6534 126.156 41.502 125.911 41.5036C126.157 41.5015 126.199 41.6531 126.251 41.8438L126.251 41.8438C126.265 41.8959 126.281 41.9509 126.301 42.0065C126.338 42.1062 126.55 42.1421 126.763 42.1779C126.859 42.1942 126.956 42.2105 127.036 42.2327L127.04 41.1977C126.991 41.2107 126.945 41.2166 126.901 41.2169C126.945 41.2164 126.991 41.2105 127.038 41.1977C127.038 41.0996 127.038 41.0012 127.038 40.9027C127.037 40.8051 127.037 40.7075 127.037 40.6102C127.115 40.4927 127.231 40.4602 127.361 40.4602C127.735 40.4594 128.11 40.4594 128.485 40.4594C129.234 40.4594 129.984 40.4594 130.733 40.4527C131.012 40.4502 131.141 40.6015 131.248 40.8227C131.527 41.3937 131.809 41.9628 132.091 42.5318C132.687 43.7332 133.282 44.9343 133.842 46.1515L133.893 46.2626C134.618 47.8384 134.625 47.8536 136.478 47.839C137.242 47.8327 137.277 47.7827 136.942 47.1202C135.843 44.9515 134.743 42.7815 133.635 40.6177C133.485 40.3252 133.39 40.1315 133.801 39.954C135.997 39.0052 136.916 37.2965 136.817 34.9365C136.74 33.0902 135.515 31.3077 133.762 30.6965C132.028 30.0918 130.253 30.1613 128.479 30.2308ZM126.151 40.9612C126.017 40.9646 125.898 41.0471 125.823 41.2027C125.776 41.3021 125.686 41.5191 125.769 41.5173C125.689 41.5169 125.778 41.3016 125.825 41.2027C125.898 41.0473 126.017 40.9648 126.151 40.9612ZM127.025 31.0515C127.139 30.9662 127.205 30.9002 127.237 30.8486C127.206 30.9004 127.139 30.9667 127.023 31.0527C127.011 31.062 127.001 31.0714 126.993 31.081C127.001 31.071 127.011 31.0612 127.025 31.0515ZM127.04 33.3476C127.038 32.4432 127.038 32.4427 127.913 32.414L127.913 32.4152C128.656 32.484 129.4 32.474 130.145 32.464C130.605 32.4578 131.065 32.4516 131.525 32.464C134.088 32.5327 134.946 34.554 134.237 36.574C133.808 37.7977 132.715 38.1615 131.536 38.204C130.526 38.2405 129.515 38.2371 128.505 38.2338C128.06 38.2323 127.616 38.2308 127.172 38.2327L127.172 38.2446L127.172 38.2302C127.006 38.0921 127.021 37.9144 127.036 37.7404C127.04 37.6892 127.045 37.6384 127.045 37.589C127.04 36.7063 127.04 35.8235 127.04 34.9408C127.04 34.411 127.04 33.8813 127.04 33.3515L127.04 33.3476ZM126.746 39.2365C126.99 39.1325 127.092 38.9489 127.136 38.7373C127.092 38.9478 126.989 39.1304 126.746 39.234C126.316 39.4164 126.15 39.716 126.168 40.0859C126.151 39.7165 126.318 39.4185 126.746 39.2365ZM118.096 36.9128V36.9127V36.9123C118.099 34.932 118.102 32.9514 118.083 30.9715C118.078 30.4002 118.242 30.2152 118.827 30.2265L118.899 30.2278C120.493 30.2561 120.494 30.2561 120.494 31.919C120.495 34.4252 120.495 36.9315 120.496 39.4377C120.496 41.944 120.496 44.4502 120.497 46.9565C120.497 47.834 120.497 47.834 119.594 47.8377H119.594C118.839 47.8408 118.461 47.8424 118.272 47.6543C118.084 47.4661 118.084 47.0883 118.086 46.3327L118.086 46.3215C118.088 44.5829 118.088 42.8442 118.087 41.1061V41.1059V41.1056V41.1054V41.1052V41.105V41.1048V41.1046C118.087 40.4101 118.087 39.7157 118.087 39.0215C118.091 39.0202 118.092 39.0202 118.094 39.0202C118.094 38.3181 118.095 37.6158 118.096 36.9136V36.9134V36.9133V36.9132V36.9131V36.913V36.9128ZM140.571 42.8477C140.733 44.8052 141.518 46.4565 143.433 47.3427L143.433 47.3427C144.122 47.7677 144.895 47.9515 145.677 48.0252C147.797 48.224 149.797 47.954 151.366 46.3077C152.446 45.174 152.776 43.7552 152.873 42.2527C152.824 42.2398 152.768 42.2327 152.711 42.2255C152.517 42.2007 152.314 42.1749 152.337 41.9065C152.345 41.8139 152.379 41.7636 152.429 41.7368C152.381 41.7639 152.347 41.8141 152.34 41.9052C152.316 42.1737 152.519 42.1994 152.714 42.2243C152.77 42.2314 152.826 42.2386 152.876 42.2515C152.947 42.064 152.942 41.874 152.891 41.6852C152.89 41.6856 152.889 41.686 152.888 41.6863C152.888 41.0301 152.888 40.3742 152.888 39.7184C152.887 39.0624 152.887 38.4065 152.887 37.7502C152.82 37.7473 152.754 37.7434 152.687 37.7396C152.529 37.7305 152.37 37.7213 152.212 37.724C151.94 37.7277 151.797 37.6315 151.648 37.3702C151.417 36.9602 151.055 36.634 150.576 36.4865C150.575 36.9175 150.575 37.3485 150.575 37.7794C150.575 39.0685 150.574 40.3575 150.57 41.6465C150.567 42.5465 150.462 43.4377 149.986 44.2177C149.086 45.6902 147.663 46.034 146.061 45.939C146.005 46.0725 145.95 46.1807 145.892 46.2649C145.949 46.1809 146.004 46.0731 146.06 45.9402C145.93 45.8974 145.797 45.8588 145.665 45.8203C145.381 45.7373 145.097 45.6544 144.833 45.529C143.328 44.8102 142.833 43.4777 142.82 41.9402C142.798 39.5727 142.8 37.2051 142.802 34.8375C142.803 33.7101 142.804 32.5827 142.802 31.4552C142.802 31.338 142.803 31.2318 142.804 31.1357V31.135C142.807 30.6685 142.809 30.4388 142.695 30.3271C142.584 30.2187 142.365 30.2216 141.932 30.2272C141.822 30.2286 141.698 30.2302 141.558 30.2302C140.439 30.2302 140.44 30.2327 140.501 31.3704L140.502 31.3852C140.509 31.5034 140.493 31.6225 140.477 31.742V31.742V31.7421V31.7421V31.7422V31.7422V31.7422C140.463 31.849 140.449 31.956 140.451 32.0627C140.471 33.3322 140.454 34.6025 140.438 35.8727V35.8728V35.8729V35.8729V35.873V35.8731V35.8731C140.408 38.1998 140.378 40.5264 140.571 42.8477ZM152.888 37.7477C152.823 37.7448 152.757 37.7412 152.691 37.7375C152.532 37.7286 152.373 37.7197 152.213 37.7215C151.942 37.7252 151.798 37.629 151.65 37.3677C151.417 36.959 151.055 36.6315 150.577 36.484C150.575 36.0422 150.573 35.6004 150.571 35.1586V35.1576C150.565 33.6868 150.559 32.2157 150.546 30.7452C150.542 30.3752 150.687 30.2127 151.061 30.219C151.41 30.2251 151.695 30.2218 151.929 30.2192C152.476 30.2131 152.736 30.2101 152.855 30.3381C152.962 30.4536 152.954 30.6759 152.939 31.099C152.931 31.3217 152.921 31.6001 152.925 31.9477C152.938 33.2724 152.923 34.597 152.907 35.9212C152.9 36.5301 152.893 37.139 152.888 37.7477Z" fill="#DCB05D"/>
<path fill-rule="evenodd" clip-rule="evenodd" d="M80.4466 48.0815C79.8632 48.0533 79.2325 48.0572 78.5736 48.0614C77.626 48.0674 76.6201 48.0737 75.6128 47.9852C73.9978 47.844 72.8078 47.1177 72.0291 45.7402C71.161 44.2046 70.3067 42.661 69.4524 41.1174L69.4522 41.1169C68.646 39.6601 67.8397 38.2032 67.0216 36.7527C64.5203 32.3177 62.0003 27.8927 59.4778 23.469L59.1581 22.9083C56.6898 18.5802 54.2221 14.2531 51.7141 9.94897C51.3841 9.38272 51.4103 9.04897 51.7953 8.55272C53.3877 6.50307 54.96 4.43765 56.5323 2.37221L56.5327 2.3718C57.0362 1.71027 57.5398 1.04874 58.0441 0.387717C58.4428 -0.134783 58.4778 -0.131033 58.7816 0.410217C59.718 2.07587 60.6557 3.74108 61.5934 5.40631L61.5935 5.40645L61.5936 5.4066L61.5937 5.40675L61.5937 5.40689L61.5938 5.40704L61.5939 5.40718L61.594 5.40733L61.5941 5.40748L61.5941 5.40762L61.5942 5.40777L61.5943 5.40791C62.8695 7.6724 64.1447 9.93694 65.4166 12.2027C66.3236 13.819 67.2272 15.4371 68.1308 17.0551L68.1341 17.0611C69.2057 18.9799 70.2771 20.8986 71.3541 22.814C72.4874 24.8297 73.6263 26.8422 74.7653 28.8547L74.7676 28.8588C75.7673 30.6252 76.767 32.3916 77.7628 34.1602C79.1913 36.6977 80.6144 39.2382 82.0374 41.7786C82.8086 43.1552 83.5797 44.5318 84.3516 45.9077C84.4798 46.136 84.6115 46.3623 84.7433 46.5885L84.7433 46.5886L84.7433 46.5887L84.7434 46.5887L84.7434 46.5888L84.7434 46.5889L84.7435 46.5889L84.7435 46.589L84.7436 46.5891L84.7436 46.5892L84.7436 46.5892L84.7437 46.5893C84.9047 46.8658 85.0657 47.1424 85.2203 47.4227C85.5541 48.0265 85.5253 48.0765 84.8491 48.079C83.7602 48.0819 82.6689 48.0818 81.4363 48.0816L80.4466 48.0815ZM65.1416 48.084C64.7442 48.084 64.3469 48.0809 63.9496 48.0779C63.0759 48.0711 62.2025 48.0644 61.3303 48.0902C58.9666 48.1615 57.2878 47.1602 56.1691 45.0702C54.2841 41.5502 52.3641 38.0477 50.4103 34.5652C48.9293 31.9271 47.4223 29.3035 45.9152 26.6798L45.9151 26.6796L45.915 26.6794L45.9149 26.6792L45.9148 26.679L45.9147 26.6788L45.9146 26.6786L45.9145 26.6785L45.9143 26.6783L45.9142 26.6781L45.9141 26.6779L45.914 26.6777L45.9136 26.6769L45.9131 26.6761L45.9127 26.6753L45.9122 26.6746L45.9118 26.6738L45.911 26.6724L45.9106 26.6716C45.2034 25.4404 44.4961 24.2092 43.7916 22.9765C43.1296 21.8183 42.4688 20.6595 41.8079 19.5007C40.8939 17.8979 39.9798 16.2951 39.0628 14.694L38.9201 14.4446C37.9978 12.8327 37.0752 11.2203 36.1266 9.6227C35.9553 9.33395 35.9728 9.15645 36.1641 8.90895C37.6447 6.9842 39.1198 5.05547 40.5951 3.12657L41.7253 1.64895C41.8156 1.53109 41.9079 1.41437 42.0002 1.29762C42.2427 0.990869 42.4855 0.683856 42.6928 0.355202C42.9841 -0.106048 43.1728 0.0339525 43.3791 0.397703C43.5423 0.684816 43.7061 0.971694 43.87 1.25859L43.8702 1.25891L43.8703 1.25922L43.8705 1.25954L43.8707 1.25986L43.8709 1.26018L43.8711 1.26049L43.8713 1.26081L43.8714 1.26113L43.8716 1.26145L43.8718 1.26176L43.872 1.26208C44.2432 1.91206 44.6144 2.56213 44.9791 3.2152C45.3867 3.94431 45.7917 4.6751 46.1966 5.40589L46.1971 5.40682L46.1978 5.40807L46.1981 5.40856L46.1983 5.40894C46.7155 6.34221 47.2327 7.27548 47.7553 8.2052C48.6461 9.7902 49.5404 11.3729 50.4347 12.9556L50.4353 12.9566L50.4375 12.9605C51.1461 14.2146 51.8547 15.4686 52.5616 16.724C54.7253 20.564 56.8891 24.4052 59.0491 28.2477C60.0453 30.0192 61.0392 31.7921 62.0331 33.5652L62.0333 33.5656L62.0336 33.5661C62.8392 35.0031 63.6447 36.4401 64.4516 37.8765C65.6079 39.9343 66.7663 41.9905 67.9247 44.0469L67.9383 44.071C68.5712 45.1944 69.204 46.3178 69.8366 47.4415C69.8574 47.4783 69.8829 47.5153 69.9087 47.5527C69.9942 47.6767 70.0828 47.8053 70.0166 47.9465C69.9315 48.1252 69.7627 48.1036 69.6017 48.083C69.5498 48.0764 69.4988 48.0699 69.4516 48.0702C68.3457 48.0769 67.2399 48.0763 66.1346 48.0756C65.8031 48.0754 65.4717 48.0752 65.1403 48.0752C65.1416 48.0802 65.1416 48.0815 65.1416 48.084ZM28.1603 26.4065C27.0966 24.569 26.4728 22.6765 27.4841 20.5965C27.4372 20.5821 27.3943 20.5666 27.3553 20.5497C27.3943 20.5666 27.4373 20.5821 27.4841 20.5965C27.9145 20.2365 28.0203 20.5601 28.1017 20.8089C28.1243 20.878 28.1451 20.9414 28.1703 20.9827C29.3329 22.9144 30.4794 24.8565 31.6258 26.7983L31.6258 26.7984L31.6262 26.7991C32.1695 27.7195 32.7128 28.6398 33.2578 29.559C36.3978 34.854 39.5403 40.1477 42.6903 45.4377C43.3891 46.614 44.1503 47.7315 45.6628 47.9652C46.6341 48.1152 47.6078 48.1202 48.5841 48.0702H48.5968C50.6909 48.0702 52.7852 48.0702 54.9816 48.074L54.1383 46.6108L54.099 46.5428L54.0628 46.48L54.0395 46.4395L54.0336 46.4292C53.5277 45.5516 53.0394 44.7044 52.5516 43.8578L52.5528 43.8577C52.5335 43.8164 52.5154 43.7745 52.4972 43.7327C52.4577 43.6419 52.4184 43.5512 52.3678 43.4665C51.1191 41.3627 49.9053 39.2377 48.6941 37.1127C48.2551 36.3422 47.8141 35.573 47.373 34.8037C46.6484 33.5401 45.9239 32.2766 45.2091 31.0077C44.4117 29.5906 43.6014 28.1812 42.791 26.7718L42.7909 26.7716C42.4212 26.1285 42.0514 25.4854 41.6828 24.8415C39.8266 21.5977 37.9703 18.3527 36.1153 15.109L36.114 15.1067C34.012 11.4287 31.9099 7.7507 29.8041 4.07522C29.28 3.16044 28.7504 2.24931 28.2111 1.32145L28.2106 1.32051L28.2101 1.31974L28.21 1.31957L28.21 1.31956C27.9766 0.918052 27.7414 0.513404 27.5041 0.103973C27.0668 0.626817 26.7269 1.17356 26.3927 1.71115L26.3927 1.71117C26.2435 1.95116 26.0954 2.18932 25.9403 2.42272C25.7462 2.71489 25.5514 3.00659 25.3565 3.29829C24.2718 4.92224 23.1873 6.5459 22.2241 8.24772C22.2999 8.25108 22.3822 8.22534 22.4646 8.1996V8.1996L22.4646 8.1996C22.544 8.17478 22.6234 8.14997 22.6969 8.15125C22.6235 8.1501 22.5441 8.17486 22.4648 8.19962C22.3823 8.22535 22.2999 8.25109 22.2241 8.24773C20.9291 10.409 19.7166 12.6127 18.7978 14.9665C17.8216 17.4677 17.1816 20.0452 17.2541 22.7452C17.3366 25.844 18.3528 28.6477 20.1116 31.1927L20.1663 31.2719C20.7159 32.0669 21.2677 32.865 21.6416 33.7627C22.5116 35.854 21.7366 37.2302 19.5028 37.5827C19.4722 37.5871 19.441 37.5896 19.4097 37.5921C19.3785 37.5946 19.3472 37.5971 19.3166 37.6015C17.3407 37.8892 15.3797 37.6706 13.4208 37.4523L13.4181 37.452C13.2588 37.4342 13.0996 37.4165 12.9403 37.399C9.35158 37.0052 6.26908 37.9177 3.89283 40.779C2.22408 42.789 1.10908 45.1052 0.0615825 47.4665C-0.0846691 47.7952 0.0378322 47.8527 0.341581 47.8502C1.27783 47.8427 2.21533 47.8477 3.15283 47.859C4.35988 47.8732 5.56698 47.8904 6.77411 47.9075L6.77468 47.9075L6.77524 47.9076L6.77581 47.9076L6.77637 47.9076L6.77694 47.9076L6.77751 47.9076L6.77807 47.9076L6.77864 47.9076L6.77921 47.9076L6.77977 47.9076H6.77988H6.77999H6.7801H6.78021H6.78032H6.78043H6.78053H6.78064H6.78075H6.78086C11.2981 47.9719 15.8159 48.0362 20.3328 47.9465C22.5041 47.9027 24.6428 47.5565 26.6603 46.6952C29.3241 45.5577 31.3816 43.8065 32.3303 40.9665C32.314 40.9678 32.2978 40.969 32.2817 40.9701C32.2974 40.969 32.3132 40.9678 32.3291 40.9665C32.4699 40.8226 32.5095 40.6384 32.5488 40.4558C32.5569 40.4179 32.5651 40.3801 32.5741 40.3427C32.9866 38.6377 32.9378 36.9277 32.5666 35.229C32.0928 33.064 31.2516 31.0478 29.9791 29.2215L29.9803 29.2215L29.7003 28.8402L29.699 28.84C29.5865 28.3853 29.3117 28.033 28.9795 27.7193L28.9803 27.719C28.891 27.5763 28.8003 27.4345 28.7095 27.2927L28.7095 27.2927L28.7095 27.2927L28.7095 27.2926L28.7095 27.2926L28.7095 27.2926L28.7095 27.2926L28.7094 27.2926L28.7094 27.2926L28.7094 27.2926L28.7094 27.2926C28.522 26.9998 28.3346 26.7071 28.1603 26.4065ZM28.9998 28.767C29.1424 28.8414 29.2911 28.8369 29.4401 28.8324H29.4402H29.4402H29.4402H29.4402H29.4402H29.4403H29.4403C29.5176 28.8301 29.5951 28.8278 29.6719 28.8365C29.5944 28.8272 29.5161 28.8295 29.4378 28.8317H29.4377H29.4377C29.2897 28.8359 29.1417 28.8401 28.9998 28.767ZM48.2766 47.3602C48.4018 47.2973 48.4922 47.2697 48.5553 47.2701C48.4922 47.2701 48.4022 47.2977 48.2778 47.3602C48.1824 47.4086 48.08 47.4562 47.9869 47.4558C48.0794 47.4555 48.1813 47.4082 48.2766 47.3602ZM48.8541 46.4515C48.7711 46.3566 48.672 46.3472 48.5919 46.3981C48.6722 46.346 48.7719 46.3553 48.8553 46.4515C49.0695 46.6974 49.2719 46.717 49.4554 46.649C49.2716 46.7177 49.0687 46.6986 48.8541 46.4515ZM50.8053 46.149C50.7016 46.1155 50.6053 46.0978 50.5117 46.0976C50.6059 46.0976 50.7026 46.1153 50.8066 46.149C50.8792 46.1724 50.9492 46.1877 51.0129 46.188C50.949 46.188 50.8785 46.1726 50.8053 46.149ZM50.5178 45.444C50.6161 45.2178 50.761 45.2384 50.8977 45.2977C50.7614 45.2389 50.617 45.2185 50.5191 45.444C50.4484 45.6076 50.357 45.6994 50.2402 45.6987C50.3564 45.6987 50.4474 45.607 50.5178 45.444ZM49.3966 45.5015C49.5242 45.4682 49.6523 45.4507 49.7735 45.4772C49.653 45.4515 49.5257 45.4691 49.3978 45.5015C49.3669 45.5096 49.3347 45.5225 49.3023 45.5355L49.3021 45.5356L49.302 45.5356L49.302 45.5356L49.302 45.5356L49.3019 45.5357L49.3019 45.5357L49.3018 45.5357C49.2361 45.5621 49.1694 45.5888 49.1105 45.5769C49.1685 45.5879 49.234 45.5617 49.2986 45.5359C49.3318 45.5227 49.3649 45.5095 49.3966 45.5015ZM48.963 44.7763C49.0238 44.7499 49.085 44.7234 49.1421 44.7335C49.0861 44.7243 49.0262 44.7501 48.9666 44.7758C48.9406 44.787 48.9146 44.7982 48.8891 44.8065C48.854 44.8183 48.8184 44.8399 48.7825 44.8616L48.7825 44.8616C48.7218 44.8984 48.6604 44.9357 48.5993 44.927C48.6596 44.9347 48.7201 44.8981 48.7799 44.8619L48.7799 44.8619C48.8163 44.8399 48.8523 44.8181 48.8878 44.8065C48.9126 44.7982 48.9378 44.7873 48.963 44.7763ZM48.9291 44.234C48.8876 44.2269 48.8466 44.2225 48.8071 44.2223C48.8471 44.2224 48.8885 44.2268 48.9303 44.234C49.0568 44.2554 49.1814 44.2886 49.306 44.3218C49.5121 44.3767 49.7183 44.4316 49.933 44.4332C49.7178 44.4318 49.5113 44.3768 49.3047 44.3218L49.3047 44.3217L49.3046 44.3217L49.3046 44.3217L49.3046 44.3217L49.3045 44.3217L49.3045 44.3217L49.3045 44.3217L49.3044 44.3217C49.1799 44.2885 49.0555 44.2554 48.9291 44.234ZM51.0741 43.6002C51.0202 43.3652 50.9156 43.3327 50.7983 43.3652C50.9161 43.3319 51.0212 43.3636 51.0753 43.6002C51.0951 43.6872 51.1267 43.7466 51.1662 43.7858C51.1262 43.7467 51.0943 43.6873 51.0741 43.6002ZM51.9066 44.0902C52.0567 43.8155 52.0301 43.7348 51.9144 43.7343C52.0315 43.734 52.0587 43.8141 51.9078 44.0902C51.8183 44.2547 51.881 44.4117 51.9427 44.5664C51.9654 44.6233 51.988 44.6799 52.0028 44.7365C52.0134 44.7775 52.0419 44.793 52.0764 44.7931C52.0416 44.7932 52.0127 44.7778 52.0016 44.7365C51.9868 44.6799 51.9642 44.6233 51.9414 44.5664C51.8797 44.4117 51.8171 44.2547 51.9066 44.0902ZM29.7973 29.2195H29.7973H29.7973L29.7971 29.2195C29.7559 29.218 29.7147 29.2165 29.6737 29.2164C29.7143 29.2166 29.7552 29.218 29.796 29.2195H29.7961H29.7961H29.7961H29.7961H29.7962H29.7962H29.7962H29.7962C29.8365 29.2209 29.8767 29.2223 29.9166 29.2225C29.8771 29.2223 29.8373 29.2209 29.7974 29.2195H29.7974H29.7974H29.7974H29.7973H29.7973ZM29.2562 29.3179C29.1965 29.3355 29.1274 29.3337 29.0603 29.332C28.9676 29.3296 28.8784 29.3272 28.8225 29.3762C28.8786 29.3284 28.9669 29.3305 29.0588 29.3328C29.1266 29.3345 29.1962 29.3362 29.2562 29.3179ZM29.1179 33.1217C29.2702 33.1227 29.4381 33.0656 29.5998 33.0107L29.6491 32.994C29.7394 32.9634 29.8324 32.9488 29.9246 32.9492C29.832 32.9487 29.7385 32.9633 29.6478 32.994L29.5985 33.0107C29.4373 33.0655 29.2699 33.1224 29.1179 33.1217ZM30.6728 33.5404C30.5949 33.5426 30.5364 33.4947 30.4786 33.4474C30.4227 33.4017 30.3676 33.3565 30.2964 33.3577C30.3668 33.3576 30.4215 33.4023 30.4769 33.4475L30.4769 33.4475C30.5351 33.4951 30.5941 33.5432 30.6728 33.5404ZM30.2932 33.3577C30.2303 33.3578 30.1541 33.324 30.08 33.2911C30.0003 33.2557 29.923 33.2214 29.867 33.2313C29.9227 33.2223 29.999 33.2562 30.0776 33.2911L30.0776 33.2912C30.1526 33.3245 30.2297 33.3587 30.2932 33.3577ZM30.3564 34.8415C30.3003 34.841 30.2356 34.8112 30.1699 34.7809L30.1699 34.7809C30.1017 34.7495 30.0325 34.7176 29.971 34.7175C30.0322 34.718 30.1011 34.7497 30.1689 34.7809L30.1689 34.7809C30.235 34.8113 30.3002 34.8412 30.3564 34.8415ZM29.537 35.2759C29.5401 35.276 29.5433 35.2758 29.5466 35.2752C29.5788 35.2699 29.61 35.2675 29.6403 35.2675C29.6096 35.2674 29.578 35.2698 29.5453 35.2752C29.5425 35.2757 29.5397 35.2759 29.537 35.2759ZM30.7949 35.8156C30.8767 35.816 30.9649 35.7985 31.0616 35.7565C31.1059 35.7371 31.1561 35.7279 31.2077 35.7279C31.1556 35.7278 31.105 35.737 31.0603 35.7565C30.9641 35.7982 30.8764 35.8158 30.7949 35.8156ZM31.3012 36.3278C31.2264 36.3273 31.1465 36.312 31.0716 36.284C31.0495 36.2758 31.0275 36.2686 31.0059 36.2626C31.0271 36.2686 31.0487 36.2758 31.0703 36.284C31.1458 36.3122 31.2261 36.3275 31.3012 36.3278ZM30.5269 36.814C30.447 36.8476 30.3452 36.8545 30.2291 36.8515L30.2278 36.8515C30.3445 36.8551 30.4468 36.8481 30.5269 36.814ZM31.3728 37.5727C31.3308 37.5704 31.2901 37.5691 31.2508 37.5689C31.2901 37.5692 31.3309 37.5705 31.3728 37.5727L31.3728 37.5727ZM27.3578 19.754L27.356 19.7558C26.8442 19.8594 26.4213 19.8533 26.0109 19.8475H26.0109C25.9484 19.8466 25.8862 19.8457 25.8241 19.8452C25.8092 19.8452 25.794 19.8456 25.7787 19.846C25.6829 19.8483 25.5812 19.8507 25.5209 19.7656C25.581 19.848 25.6795 19.8462 25.7734 19.8444C25.7901 19.8441 25.8067 19.8438 25.8228 19.844C25.885 19.8445 25.9472 19.8454 26.0097 19.8462H26.0097C26.4208 19.8521 26.8446 19.8581 27.3578 19.754ZM26.9441 18.5552C26.994 18.5931 27.0272 18.6269 27.0469 18.6574C27.0272 18.6272 26.9944 18.5939 26.9453 18.5565C26.6503 18.3315 26.1366 18.2265 25.6978 18.4177C25.6729 18.4287 25.648 18.44 25.6232 18.4512L25.6231 18.4513L25.6231 18.4513L25.6231 18.4513L25.623 18.4513C25.4185 18.5441 25.2197 18.6343 25.0317 18.5159C25.2189 18.6332 25.4168 18.5432 25.6204 18.4507C25.6457 18.4392 25.6711 18.4277 25.6966 18.4165C26.1341 18.2252 26.6491 18.3302 26.9441 18.5552ZM26.8766 17.2452L26.8752 17.2473C26.6002 17.3299 26.3477 17.2749 26.1057 17.2222C25.7945 17.1544 25.5005 17.0904 25.1978 17.3277C25.0996 17.4048 24.9693 17.3671 24.8729 17.2688C24.9692 17.3662 25.0988 17.4032 25.1966 17.3265C25.4992 17.0892 25.7927 17.1531 26.1038 17.2209C26.3465 17.2738 26.5999 17.3291 26.8766 17.2452ZM25.3199 15.4715C25.5345 15.5584 25.6663 15.7356 25.8001 15.9154C25.965 16.1372 26.133 16.363 26.463 16.4287L26.4641 16.4277C26.1332 16.3622 25.965 16.1363 25.7998 15.9143C25.6658 15.7343 25.5337 15.5569 25.3184 15.4697C24.9094 14.9621 23.9724 14.7385 23.5267 15.0559L23.5241 15.0577L23.5241 15.0577L23.5267 15.0559C23.9736 14.7373 24.9093 14.9621 25.3184 15.4697L25.3184 15.4697L25.3199 15.4715ZM25.3173 15.476L25.3162 15.4762L25.3159 15.4736L23.5241 15.0577L24.3244 15.6464C24.4428 15.4926 24.5983 15.4598 24.7643 15.4614C24.8308 15.4619 24.8989 15.4681 24.967 15.4742L24.967 15.4742C25.0363 15.4804 25.1057 15.4866 25.1731 15.487C25.222 15.4872 25.2699 15.4843 25.3162 15.4762L25.3162 15.4764L25.3174 15.4762L25.3173 15.476ZM25.4405 16.4673L25.4392 16.4664L25.4396 16.4692L25.4407 16.4693L25.4405 16.4673ZM23.9153 15.8202C23.8502 15.7635 23.7888 15.7404 23.7301 15.74C23.7891 15.7401 23.851 15.7632 23.9166 15.8202C23.9638 15.8613 24.0184 15.8997 24.0692 15.9171C24.0181 15.9001 23.9629 15.8617 23.9153 15.8202ZM23.3005 15.1708C23.368 15.1714 23.436 15.1219 23.5109 15.0673L23.5097 15.0682C23.4351 15.1226 23.3677 15.1717 23.3005 15.1708ZM23.3005 15.1708C23.2546 15.1701 23.2087 15.1461 23.1605 15.0846C23.2084 15.1464 23.2543 15.1703 23.3005 15.1708ZM23.1605 15.0846L23.1591 15.0827C23.0789 14.98 23.0461 14.8702 23.0893 14.7625C23.0467 14.8699 23.0799 14.9802 23.1591 15.0827L23.1605 15.0846ZM22.9591 8.39522L22.9578 8.39154L23.2058 8.70083C23.1036 8.61818 23.0051 8.5292 22.9591 8.39522ZM23.519 9.09146L23.2058 8.70083L23.2426 8.73034C23.3563 8.82101 23.4674 8.90959 23.5091 9.04897C23.5135 9.06378 23.5168 9.07794 23.519 9.09146ZM23.2041 9.28772C23.3959 9.33654 23.5488 9.27079 23.519 9.09146L23.9532 9.63297C23.4659 9.63981 22.9842 9.56344 22.4816 9.38523L22.4816 9.38522C22.7033 9.15645 22.9339 9.21692 23.1629 9.27698L23.1696 9.27875L23.2003 9.28675L23.2041 9.28772ZM24.3178 9.61273L24.2784 9.61634L24.3178 9.61272C24.3438 9.6102 24.3714 9.60987 24.399 9.61216C24.3714 9.60987 24.3438 9.61021 24.3178 9.61273ZM24.6216 9.83648L24.6216 9.83647C24.6146 9.88341 24.5994 9.91599 24.5785 9.9379C24.5994 9.91599 24.6146 9.88342 24.6216 9.83648ZM23.5603 10.0377C23.6835 9.90158 23.7979 9.85822 23.9082 9.85654C23.7979 9.85833 23.6833 9.90175 23.5603 10.0377C23.8505 10.0444 24.0378 10.2004 24.2228 10.3544C24.417 10.5161 24.6086 10.6757 24.9141 10.6577C24.9042 10.6687 24.8942 10.6792 24.8842 10.6892C24.8942 10.6792 24.9042 10.6687 24.9141 10.6577C24.6078 10.6757 24.4162 10.516 24.222 10.3542C24.0374 10.2002 23.8504 10.0444 23.5603 10.0377ZM24.706 13.6902C24.7153 13.6765 24.7225 13.6593 24.7266 13.6377L24.7266 13.6377C24.7225 13.6593 24.7153 13.6765 24.706 13.6902ZM24.4736 13.5262C24.5485 13.5038 24.6238 13.4812 24.6768 13.5363C24.6241 13.482 24.549 13.5043 24.4742 13.5266C24.3973 13.5494 24.3207 13.5722 24.2691 13.5115C24.2645 13.4933 24.2626 13.4764 24.2629 13.4608C24.2627 13.4764 24.2646 13.4932 24.2691 13.5115C24.3207 13.5721 24.3969 13.5492 24.4736 13.5262ZM22.8153 11.1227L22.8309 11.1261L22.8153 11.1227C22.8569 11.0563 22.9005 11.001 22.9459 10.9554C22.9005 11.001 22.8569 11.0563 22.8153 11.1227ZM23.7803 13.6977C23.5391 13.7402 23.3566 13.664 23.2266 13.424L23.2266 13.424C23.3566 13.664 23.5391 13.7402 23.7803 13.6977L23.7803 13.6977ZM26.4991 20.1665C26.4753 20.2349 26.4978 20.2859 26.5532 20.3109C26.4977 20.286 26.475 20.2352 26.4978 20.1677C26.5049 20.1471 26.5244 20.1218 26.5458 20.1005C26.5249 20.1215 26.506 20.1463 26.4991 20.1665ZM25.0066 11.609C25.0078 11.5097 24.9315 11.4956 24.8573 11.486C24.9315 11.4957 25.0078 11.5109 25.0066 11.609C24.9603 11.7065 24.8816 11.7227 24.7991 11.7115L24.7882 11.7101C24.7305 11.7028 24.6617 11.6942 24.6432 11.6417C24.6617 11.6942 24.7305 11.7029 24.7882 11.7101L24.7991 11.7115C24.8816 11.7227 24.9603 11.7065 25.0066 11.609ZM51.5208 44.3421C51.5139 44.3208 51.5041 44.3034 51.4928 44.2965C51.4351 44.2616 51.3832 44.2443 51.3348 44.2416C51.3832 44.2441 51.4351 44.2609 51.4928 44.2952C51.5043 44.3022 51.514 44.3203 51.5208 44.3421Z" fill="#DCB05D"/>
</svg>
